<svg viewBox="0 0 1000 850" xmlns="http://www.w3.org/2000/svg" font-family="Georgia, 'Times New Roman', serif">
  <!-- Background -->
  <rect width="1000" height="850" fill="#ffffff"/>
  
  <!-- ==================== HEADER ==================== -->
  <text x="500" y="40" text-anchor="middle" font-size="22" font-weight="bold" fill="#1a1a1a">RCC Scores by Claim</text>
  <text x="500" y="68" text-anchor="middle" font-size="14" fill="#64748b">Tesla Robotaxi Market  |  Resolved: YES  |  N = 25 replicas  |  p = 0.5</text>
  
  <!-- ==================== LEGEND (centered below subtitle) ==================== -->
  <g transform="translate(380, 85)">
    <rect x="0" y="0" width="18" height="14" fill="#22c55e" rx="2"/>
    <text x="24" y="12" font-size="12" fill="#475569">Helped prediction</text>
    <rect x="140" y="0" width="18" height="14" fill="#ef4444" rx="2"/>
    <text x="164" y="12" font-size="12" fill="#475569">Hurt prediction</text>
  </g>
  
  <!-- ==================== COLUMN HEADERS ==================== -->
  <g transform="translate(0, 115)">
    <text x="50" y="20" font-size="13" font-weight="bold" fill="#374151">Claim</text>
    <text x="620" y="20" font-size="13" font-weight="bold" fill="#374151">RCC Score</text>
    <line x1="40" y1="32" x2="800" y2="32" stroke="#d1d5db" stroke-width="1"/>
  </g>
  
  <!-- ==================== CHART AREA ==================== -->
  <g transform="translate(0, 155)">
    
    <!-- Zero line -->
    <line x1="580" y1="0" x2="580" y2="595" stroke="#94a3b8" stroke-width="2"/>
    
    <!-- Grid lines (scale: 0.2 = 200px) -->
    <line x1="380" y1="0" x2="380" y2="595" stroke="#f1f5f9" stroke-width="1"/>
    <line x1="480" y1="0" x2="480" y2="595" stroke="#f1f5f9" stroke-width="1"/>
    <line x1="680" y1="0" x2="680" y2="595" stroke="#f1f5f9" stroke-width="1"/>
    <line x1="780" y1="0" x2="780" y2="595" stroke="#f1f5f9" stroke-width="1"/>
    
    <!-- Scale: 0.2 = 200px, so multiply RCC by 1000 -->
    
    <!-- ===== ROW 1: Street sighting +0.1957 ===== -->
    <g transform="translate(0, 0)">
      <rect x="40" y="0" width="760" height="33" fill="#ffffff"/>
      <text x="50" y="22" font-size="13" fill="#1a1a1a">Reddit: fleet photos near Gigafactory</text>
      <rect x="580" y="5" width="196" height="23" fill="#22c55e" rx="3"/>
      <text x="786" y="22" font-size="13" fill="#166534" font-weight="bold">+0.196</text>
    </g>
    
    <!-- ===== ROW 2: Job postings +0.1935 ===== -->
    <g transform="translate(0, 33)">
      <rect x="40" y="0" width="760" height="33" fill="#fafafa"/>
      <text x="50" y="22" font-size="13" fill="#1a1a1a">847 "Remote Vehicle Operator" postings</text>
      <rect x="580" y="5" width="194" height="23" fill="#22c55e" rx="3"/>
      <text x="784" y="22" font-size="13" fill="#166534" font-weight="bold">+0.194</text>
    </g>
    
    <!-- ===== ROW 3: Insurance +0.1643 ===== -->
    <g transform="translate(0, 66)">
      <rect x="40" y="0" width="760" height="33" fill="#ffffff"/>
      <text x="50" y="22" font-size="13" fill="#1a1a1a">Texas insurance policy filing</text>
      <rect x="580" y="5" width="164" height="23" fill="#4ade80" rx="3"/>
      <text x="754" y="22" font-size="13" fill="#166534" font-weight="bold">+0.164</text>
    </g>
    
    <!-- ===== ROW 4: Insider signal +0.1585 ===== -->
    <g transform="translate(0, 99)">
      <rect x="40" y="0" width="760" height="33" fill="#fafafa"/>
      <text x="50" y="22" font-size="13" fill="#1a1a1a">Blind: "launch readiness" in Q1</text>
      <rect x="580" y="5" width="159" height="23" fill="#4ade80" rx="3"/>
      <text x="749" y="22" font-size="13" fill="#166534" font-weight="bold">+0.159</text>
    </g>
    
    <!-- ===== ROW 5: Local opposition +0.1272 ===== -->
    <g transform="translate(0, 132)">
      <rect x="40" y="0" width="760" height="33" fill="#ffffff"/>
      <text x="50" y="22" font-size="13" fill="#1a1a1a">Rideshare drivers protest announcement</text>
      <rect x="580" y="5" width="127" height="23" fill="#4ade80" rx="3"/>
      <text x="717" y="22" font-size="13" fill="#166534" font-weight="bold">+0.127</text>
    </g>
    
    <!-- ===== ROW 6: Regulatory +0.1127 ===== -->
    <g transform="translate(0, 165)">
      <rect x="40" y="0" width="760" height="33" fill="#fafafa"/>
      <text x="50" y="22" font-size="13" fill="#1a1a1a">City Council meeting agenda</text>
      <rect x="580" y="5" width="113" height="23" fill="#86efac" rx="3"/>
      <text x="703" y="22" font-size="13" fill="#166534" font-weight="bold">+0.113</text>
    </g>
    
    <!-- ===== ROW 7: Soft launch +0.0982 ===== -->
    <g transform="translate(0, 198)">
      <rect x="40" y="0" width="760" height="33" fill="#ffffff"/>
      <text x="50" y="22" font-size="13" fill="#1a1a1a">Deleted TikTok showing robotaxi ride</text>
      <rect x="580" y="5" width="98" height="23" fill="#86efac" rx="3"/>
      <text x="688" y="22" font-size="13" fill="#166534" font-weight="bold">+0.098</text>
    </g>
    
    <!-- ===== ROW 8: Local news +0.0854 ===== -->
    <g transform="translate(0, 231)">
      <rect x="40" y="0" width="760" height="33" fill="#fafafa"/>
      <text x="50" y="22" font-size="13" fill="#1a1a1a">Airport staging area tour reported</text>
      <rect x="580" y="5" width="85" height="23" fill="#86efac" rx="3"/>
      <text x="675" y="22" font-size="13" fill="#166534" font-weight="bold">+0.085</text>
    </g>
    
    <!-- ===== ROW 9: Satellite +0.0682 ===== -->
    <g transform="translate(0, 264)">
      <rect x="40" y="0" width="760" height="33" fill="#ffffff"/>
      <text x="50" y="22" font-size="13" fill="#1a1a1a">Satellite imagery: fleet 8× larger</text>
      <rect x="580" y="5" width="68" height="23" fill="#bbf7d0" rx="3"/>
      <text x="658" y="22" font-size="13" fill="#166534" font-weight="bold">+0.068</text>
    </g>
    
    <!-- ===== ROW 10: Physical infrastructure +0.0327 ===== -->
    <g transform="translate(0, 297)">
      <rect x="40" y="0" width="760" height="33" fill="#fafafa"/>
      <text x="50" y="22" font-size="13" fill="#1a1a1a">Reddit: "weird parking structure"</text>
      <rect x="580" y="5" width="33" height="23" fill="#bbf7d0" rx="3"/>
      <text x="623" y="22" font-size="13" fill="#166534" font-weight="bold">+0.033</text>
    </g>
    
    <!-- ===== ROW 11: Supply chain +0.0157 ===== -->
    <g transform="translate(0, 330)">
      <rect x="40" y="0" width="760" height="33" fill="#ffffff"/>
      <text x="50" y="22" font-size="13" fill="#1a1a1a">Port of Houston shipping manifest</text>
      <rect x="580" y="5" width="16" height="23" fill="#dcfce7" rx="3"/>
      <text x="606" y="22" font-size="13" fill="#166534" font-weight="bold">+0.016</text>
    </g>
    
    <!-- ===== ROW 12: Baseline +0.0103 ===== -->
    <g transform="translate(0, 363)">
      <rect x="40" y="0" width="760" height="33" fill="#fafafa"/>
      <text x="50" y="22" font-size="13" fill="#1a1a1a">Robotaxi Day 2024 announcement</text>
      <rect x="580" y="5" width="10" height="23" fill="#dcfce7" rx="3"/>
      <text x="600" y="22" font-size="13" fill="#166534" font-weight="bold">+0.010</text>
    </g>
    
    <!-- ===== ROW 13: Noise +0.0018 ===== -->
    <g transform="translate(0, 396)">
      <rect x="40" y="0" width="760" height="33" fill="#ffffff"/>
      <text x="50" y="22" font-size="13" fill="#1a1a1a">Elon tweet: "absolutely insane"</text>
      <rect x="580" y="5" width="2" height="23" fill="#f0fdf4" rx="1"/>
      <text x="592" y="22" font-size="13" fill="#64748b" font-weight="bold">+0.002</text>
    </g>
    
    <!-- ===== DIVIDER ===== -->
    <line x1="50" y1="437" x2="790" y2="437" stroke="#cbd5e1" stroke-width="1" stroke-dasharray="8,4"/>
    
    <!-- ===== ROW 14: App teardown -0.0095 ===== -->
    <g transform="translate(0, 445)">
      <rect x="40" y="0" width="760" height="33" fill="#fafafa"/>
      <text x="50" y="22" font-size="13" fill="#1a1a1a">Tesla app hidden API endpoints</text>
      <rect x="570" y="5" width="10" height="23" fill="#fef2f2" rx="3"/>
      <text x="560" y="22" font-size="13" fill="#64748b" font-weight="bold" text-anchor="end">−0.010</text>
    </g>
    
    <!-- ===== ROW 15: Public filing -0.0268 ===== -->
    <g transform="translate(0, 478)">
      <rect x="40" y="0" width="760" height="33" fill="#ffffff"/>
      <text x="50" y="22" font-size="13" fill="#1a1a1a">CA PUC drivered permit filing</text>
      <rect x="553" y="5" width="27" height="23" fill="#fecaca" rx="3"/>
      <text x="543" y="22" font-size="13" fill="#991b1b" font-weight="bold" text-anchor="end">−0.027</text>
    </g>
    
    <!-- ===== ROW 16: Competitor intel -0.0315 ===== -->
    <g transform="translate(0, 511)">
      <rect x="40" y="0" width="760" height="33" fill="#fafafa"/>
      <text x="50" y="22" font-size="13" fill="#1a1a1a">Waymo internal memo leaked</text>
      <rect x="548" y="5" width="32" height="23" fill="#fecaca" rx="3"/>
      <text x="538" y="22" font-size="13" fill="#991b1b" font-weight="bold" text-anchor="end">−0.032</text>
    </g>
    
    <!-- ===== ROW 17: Financial signal -0.0478 ===== -->
    <g transform="translate(0, 544)">
      <rect x="40" y="0" width="760" height="33" fill="#ffffff"/>
      <text x="50" y="22" font-size="13" fill="#1a1a1a">Morgan Stanley analyst downgrade</text>
      <rect x="532" y="5" width="48" height="23" fill="#fca5a5" rx="3"/>
      <text x="522" y="22" font-size="13" fill="#991b1b" font-weight="bold" text-anchor="end">−0.048</text>
    </g>
    
    <!-- ===== ROW 18: Counter-signal -0.1966 ===== -->
    <g transform="translate(0, 577)">
      <rect x="40" y="0" width="760" height="33" fill="#fafafa"/>
      <text x="50" y="22" font-size="13" fill="#1a1a1a">CA DMV disengagement data</text>
      <rect x="383" y="5" width="197" height="23" fill="#ef4444" rx="3"/>
      <text x="373" y="22" font-size="13" fill="#991b1b" font-weight="bold" text-anchor="end">−0.197</text>
    </g>
    
    <!-- Scale labels -->
    <text x="380" y="630" text-anchor="middle" font-size="12" fill="#94a3b8">−0.20</text>
    <text x="580" y="630" text-anchor="middle" font-size="12" fill="#94a3b8">0</text>
    <text x="780" y="630" text-anchor="middle" font-size="12" fill="#94a3b8">+0.20</text>
    
  </g>
  
  <!-- ==================== CAPTION ==================== -->
  <text x="500" y="810" text-anchor="middle" font-size="13" fill="#64748b" font-style="italic">
    Figure 2. RCC scores for 18 claims in the Tesla Robotaxi market. Positive scores indicate claims that improved
  </text>
  <text x="500" y="830" text-anchor="middle" font-size="13" fill="#64748b" font-style="italic">
    forecast accuracy. CA DMV data (−0.197) was most harmful; Reddit fleet photos (+0.196) most helpful.
  </text>
</svg>
